{"title":"Love Simon 2018 BRRip 480p x264 Dual Audio [Eng-Hindi] YsB TeaM ","magnet":"magnet:?xt=urn:btih:b2063a582cdcbfe9797c1ca4eea4e28599bc1da0&dn=Love+Simon+2018+BRRip+480p+x264+Dual+Audio+%5BEng-Hindi%5D+YsB+TeaM+&tr=udp%3A%2F%2Ftracker.leechers-paradise.org%3A6969&tr=udp%3A%2F%2Fzer0day.ch%3A1337&tr=udp%3A%2F%2Fopen.demonii.com%3A1337&tr=udp%3A%2F%2Ftracker.coppersurfer.tk%3A6969&tr=udp%3A%2F%2Fexodus.desync.com%3A6969","uploader":"Dj_YsB","categoryP":"video","categoryS":"movies","size":"481698954","seeders":"4","leechers":"3","description":"Love Simon 2018 BRRip 480p x264 Dual Audio [Eng-Hindi] YsB TeaM Fl &amp; SSX\r\n\r\n\r\nInfo:\r\nGeneral \r\nComplete name : Love Simon 2018 BRRip 480p x264 Dual Audio [Eng-Hindi] YsB TeaM Fl &amp; SSX.mkv \r\nFormat : Matroska \r\nFormat version : Version 4 / Version 2 \r\nFile size : 455 MiB \r\nDuration : 1 h 49 min \r\nOverall bit rate : 580 kb/s \r\nMovie name : Love Simon 2018 BRRip 480p x264 Dual Audio [Eng-Hindi] YsB TeaM Fl &amp; SSX \r\n\r\nVideo \r\nID : 1 \r\nFormat : AVC \r\nFormat/Info : Advanced Video Codec \r\nFormat profile : High@L4.1 \r\nDuration : 1 h 49 min \r\nBit rate : 450 kb/s \r\nWidth : 848 pixels \r\nHeight : 352 pixels \r\nDisplay aspect ratio : 2.40:1 \r\nFrame rate mode : Constant \r\nFrame rate : 23.976 (24000/1001) FPS \r\nColor space : YUV \r\nChroma subsampling : 4:2:0 \r\nBit depth : 8 bits \r\nStream size : 353 MiB (78%) \r\nTitle : Love Simon 2018 BRRip 480p x264 Dual Audio [Eng-Hindi] YsB TeaM Fl &amp; SSX \r\n\r\nAudio #1 \r\nID : 2 \r\nFormat : AC-3 \r\nFormat/Info : Audio Coding 3 \r\nCodec ID : A_AC3 \r\nDuration : 1 h 49 min \r\nBit rate mode : Constant \r\nBit rate : 64.0 kb/s \r\nChannel(s) : 2 channels \r\nChannel positions : Front: L R \r\nSampling rate : 48.0 kHz \r\nBit depth : 16 bits \r\nCompression mode : Lossy \r\nStream size : 50.2 MiB (11%) \r\nTitle : YsB TeaM Fl &amp; SSX \r\nLanguage : Hindi \r\n\r\nAudio #2 \r\nID : 3 \r\nFormat : AC-3 \r\nFormat/Info : Audio Coding 3 \r\nCodec ID : A_AC3 \r\nDuration : 1 h 49 min \r\nBit rate mode : Constant \r\nBit rate : 64.0 kb/s \r\nChannel(s) : 2 channels \r\nChannel positions : Front: L R \r\nSampling rate : 48.0 kHz \r\nBit depth : 16 bits \r\nCompression mode : Lossy \r\nStream size : 50.2 MiB (11%) \r\nTitle : YsB TeaM Fl &amp; SSX \r\nLanguage : English \r\n\r\n\r\nScreenshot: <a href=\"\nhttps://i.imgur.com/FVp3GO2.jpg\" rel=\"nofollow\" target=\"_NEW\">\nhttps://i.imgur.com/FVp3GO2.jpg</a> <a href=\"\nhttps://i.imgur.com/HoVbmzU.jpg\" rel=\"nofollow\" target=\"_NEW\">\nhttps://i.imgur.com/HoVbmzU.jpg</a> <a href=\"\nhttps://i.imgur.com/OUy1Izb.jpg\" rel=\"nofollow\" target=\"_NEW\">\nhttps://i.imgur.com/OUy1Izb.jpg</a>\r\n\r\nThanks.\r\nTeaM FL , TeaM SSX, AnantaRdp\r\n\r\nEncoded and Seeding Through AnantaRdp Rdp","last_updated":"2018-06-04T12:04:38.811Z","parsed":{"xt":"urn:btih:b2063a582cdcbfe9797c1ca4eea4e28599bc1da0","dn":"Love Simon 2018 BRRip 480p x264 Dual Audio [Eng-Hindi] YsB TeaM ","tr":["udp://exodus.desync.com:6969","udp://open.demonii.com:1337","udp://tracker.coppersurfer.tk:6969","udp://tracker.leechers-paradise.org:6969","udp://zer0day.ch:1337"],"infoHash":"b2063a582cdcbfe9797c1ca4eea4e28599bc1da0","infoHashBuffer":{"type":"Buffer","data":[178,6,58,88,44,220,191,233,121,124,28,164,238,164,226,133,153,188,29,160]},"name":"Love Simon 2018 BRRip 480p x264 Dual Audio [Eng-Hindi] YsB TeaM ","announce":["udp://exodus.desync.com:6969","udp://open.demonii.com:1337","udp://tracker.coppersurfer.tk:6969","udp://tracker.leechers-paradise.org:6969","udp://zer0day.ch:1337"],"urlList":[]}}